<svg width="480" height="320" viewBox="0 0 480 320" fill="none" xmlns="http://www.w3.org/2000/svg">
  <ellipse cx="255" cy="168" rx="228" ry="148" fill="#EEEBF7"/>

  <!-- Head A: older mentor (left) -->
  <circle cx="140" cy="170" r="88" stroke="#53409B" stroke-width="7" stroke-linecap="round" stroke-linejoin="round"/>
  <!-- glasses -->
  <circle cx="120" cy="168" r="24" stroke="#53409B" stroke-width="6" stroke-linecap="round" stroke-linejoin="round"/>
  <circle cx="184" cy="168" r="24" stroke="#53409B" stroke-width="6" stroke-linecap="round" stroke-linejoin="round"/>
  <path d="M134 168H150" stroke="#53409B" stroke-width="6" stroke-linecap="round"/>
  <path d="M86 163C74 158 66 152 60 146" stroke="#53409B" stroke-width="6" stroke-linecap="round"/>
  <!-- eyebrows -->
  <path d="M92 134C99 129 118 129 126 134" stroke="#53409B" stroke-width="6" stroke-linecap="round"/>
  <path d="M156 134C164 129 183 129 190 134" stroke="#53409B" stroke-width="6" stroke-linecap="round"/>
  <!-- smile -->
  <path d="M108 210C122 228 158 228 172 210" stroke="#53409B" stroke-width="7" stroke-linecap="round"/>

  <!-- Head B: younger learner (right) -->
  <circle cx="360" cy="148" r="82" stroke="#53409B" stroke-width="7" stroke-linecap="round" stroke-linejoin="round"/>
  <!-- curly hair -->
  <path d="M 288.6 174 A 22.8 22.8 0 0 1 284.7 137.4 A 22.8 22.8 0 0 1 298.5 103.3 A 22.8 22.8 0 0 1 326.7 79.7 A 22.8 22.8 0 0 1 362.7 72 A 22.8 22.8 0 0 1 398 82.2 A 22.8 22.8 0 0 1 424.5 107.7 A 22.8 22.8 0 0 1 435.8 142.7 A 21.2 21.2 0 0 1 430.5 176.5" stroke="#53409B" stroke-width="7" stroke-linecap="round" stroke-linejoin="round"/>
  <!-- eyes -->
  <circle cx="338" cy="150" r="6.5" fill="#53409B"/>
  <circle cx="382" cy="150" r="6.5" fill="#53409B"/>
  <!-- smile -->
  <path d="M334 188C346 202 374 202 386 188" stroke="#53409B" stroke-width="7" stroke-linecap="round"/>
  <!-- raised arm + fist -->
  <path d="M422 202C442 198 454 178 458 156" stroke="#53409B" stroke-width="7" stroke-linecap="round"/>
  <circle cx="464" cy="140" r="19" stroke="#53409B" stroke-width="7" stroke-linecap="round" stroke-linejoin="round"/>
  <path d="M454 132V128M464 128V124M474 132V128" stroke="#53409B" stroke-width="4" stroke-linecap="round"/>

  <!-- connecting link motif: two interlocked rings sitting in the gap between the two figures -->
  <g transform="translate(238,178) rotate(-18)">
    <ellipse rx="19" ry="12" stroke="#53409B" stroke-width="6"/>
  </g>
  <g transform="translate(266,192) rotate(-18)">
    <ellipse rx="19" ry="12" stroke="#53409B" stroke-width="6"/>
  </g>
</svg>
